<svg xmlns="http://www.w3.org/2000/svg" width="484" height="240" viewBox="0 0 484 240">
  <g transform="translate(0, 0)">
  <rect width="240" height="240" fill="#09070d"/>
  <rect x="8" y="8" width="224" height="224" rx="8" fill="#130f1a"/>
  <rect x="16" y="16" width="208" height="36" rx="6" fill="#09070d"/>
  <text x="28" y="40" font-family="system-ui, sans-serif" font-size="12" font-weight="600" fill="#f0f0f0">Peace &amp; Quiet Lavender (dark)</text>
  <rect x="16" y="60" width="208" height="72" rx="6" fill="#221f26"/>
  <text x="28" y="82" font-family="system-ui, sans-serif" font-size="11" fill="#f0f0f0">Surface Text</text>
  <text x="28" y="98" font-family="system-ui, sans-serif" font-size="10" fill="#c9b8d9">Outline color</text>
  <rect x="28" y="108" width="72" height="18" rx="9" fill="#b8a8f0"/>
  <text x="64" y="120" font-family="system-ui, sans-serif" font-size="9" text-anchor="middle" fill="#1e1e00">Primary</text>
  <rect x="108" y="108" width="48" height="18" rx="4" fill="#92eda7"/>
  <rect x="16" y="140" width="100" height="52" rx="6" fill="#09070d"/>
  <rect x="24" y="148" width="84" height="36" rx="4" fill="#09070d"/>
  <text x="66" y="170" font-family="system-ui, sans-serif" font-size="9" text-anchor="middle" fill="#f0f0f0">Background</text>
  <rect x="124" y="140" width="100" height="52" rx="6" fill="#09070d"/>
  <circle cx="148" cy="166" r="9" fill="#f38ba8"/>
  <circle cx="172" cy="166" r="9" fill="#fab387"/>
  <circle cx="196" cy="166" r="9" fill="#92eda7"/>
  <rect x="16" y="200" width="208" height="24" rx="4" fill="#b8a8f0" opacity="0.15"/>
  <text x="120" y="216" font-family="system-ui, sans-serif" font-size="9" text-anchor="middle" fill="#f0f0f0">Surface Tint Overlay</text>
</g>
  <rect x="240" y="0" width="4" height="240" fill="#888"/>
  <g transform="translate(244, 0)">
  <rect width="240" height="240" fill="#f5f0fa"/>
  <rect x="8" y="8" width="224" height="224" rx="8" fill="#ede8f5"/>
  <rect x="16" y="16" width="208" height="36" rx="6" fill="#f5f0fa"/>
  <text x="28" y="40" font-family="system-ui, sans-serif" font-size="12" font-weight="600" fill="#1e1824">Peace &amp; Quiet Lavender (light)</text>
  <rect x="16" y="60" width="208" height="72" rx="6" fill="#e8e0f2"/>
  <text x="28" y="82" font-family="system-ui, sans-serif" font-size="11" fill="#1e1824">Surface Text</text>
  <text x="28" y="98" font-family="system-ui, sans-serif" font-size="10" fill="#a090cc">Outline color</text>
  <rect x="28" y="108" width="72" height="18" rx="9" fill="#6b54c7"/>
  <text x="64" y="120" font-family="system-ui, sans-serif" font-size="9" text-anchor="middle" fill="#ffffff">Primary</text>
  <rect x="108" y="108" width="48" height="18" rx="4" fill="#2e9e55"/>
  <rect x="16" y="140" width="100" height="52" rx="6" fill="#f5f0fa"/>
  <rect x="24" y="148" width="84" height="36" rx="4" fill="#f5f0fa"/>
  <text x="66" y="170" font-family="system-ui, sans-serif" font-size="9" text-anchor="middle" fill="#1e1824">Background</text>
  <rect x="124" y="140" width="100" height="52" rx="6" fill="#f5f0fa"/>
  <circle cx="148" cy="166" r="9" fill="#b0324e"/>
  <circle cx="172" cy="166" r="9" fill="#b05520"/>
  <circle cx="196" cy="166" r="9" fill="#2e9e55"/>
  <rect x="16" y="200" width="208" height="24" rx="4" fill="#6b54c7" opacity="0.15"/>
  <text x="120" y="216" font-family="system-ui, sans-serif" font-size="9" text-anchor="middle" fill="#1e1824">Surface Tint Overlay</text>
</g>
</svg>